<svg width="65" height="64" viewBox="0 0 65 64" fill="none" xmlns="http://www.w3.org/2000/svg">
<path fill-rule="evenodd" clip-rule="evenodd" d="M11.4379 55.604L9.70191 9.37595C9.64724 7.84929 10.8206 6.55729 12.3446 6.46395L43.1552 4.53729L45.5086 5.33329L48.5686 4.19862L51.6566 4.00529C53.2072 3.90662 54.5446 5.08395 54.6446 6.63462C54.6486 6.69462 54.6499 6.75595 54.6499 6.81729V57.1866C54.6486 58.7426 53.3859 60.0026 51.8299 60.0013C51.7886 60.0013 51.7472 60 51.7072 59.9986L14.1259 58.3106C12.6619 58.2453 11.4939 57.0693 11.4379 55.604Z" fill="#FF4081"/>
<path fill-rule="evenodd" clip-rule="evenodd" d="M48.566 4.19873L43.1566 4.53473L42.894 10.8827C42.8846 11.1147 43.0646 11.3094 43.2966 11.3201C43.394 11.3241 43.4886 11.2947 43.566 11.2361L46.03 9.3654L48.1126 11.0067C48.294 11.1507 48.5593 11.1201 48.702 10.9387C48.7633 10.8601 48.7953 10.7627 48.7926 10.6627L48.5686 4.20006L48.566 4.19873ZM44.3553 25.4507C43.3673 26.2201 35.986 26.7441 35.986 25.6494C36.1433 21.4694 34.2726 21.2867 33.2313 21.2867C32.246 21.2867 30.582 21.5841 30.582 23.8241C30.582 26.1054 33.0126 27.3934 35.866 28.9054C39.918 31.0534 44.826 33.6547 44.826 40.1947C44.826 46.4667 39.73 49.9281 33.234 49.9281C26.5286 49.9281 20.6673 47.2147 21.3286 37.8094C21.5886 36.7067 30.1153 36.9694 30.1153 37.8094C30.0086 41.6907 30.894 42.8321 33.1286 42.8321C34.8446 42.8321 35.6233 41.8854 35.6233 40.2947C35.6233 37.8841 33.0926 36.4614 30.178 34.8267C26.2326 32.6121 21.59 30.0054 21.59 24.0214C21.59 18.0521 25.6953 14.0707 33.0246 14.0707C40.354 14.0707 44.3553 17.9921 44.3553 25.4507Z" fill="white"/>
</svg>
