<svg width="65" height="64" viewBox="0 0 65 64" fill="none" xmlns="http://www.w3.org/2000/svg">
<path d="M53.8054 34.6079C51.7548 34.6186 49.9788 35.1106 48.4908 35.8452C47.9468 34.7586 47.3948 33.8026 47.3028 33.0919C47.1948 32.2626 47.0694 31.7666 47.2001 30.7786C47.3308 29.7906 47.9028 28.3906 47.8948 28.2852C47.8868 28.1799 47.7668 27.6772 46.5841 27.6679C45.4014 27.6599 44.3894 27.8959 44.2708 28.2079C44.1521 28.5199 43.9241 29.2226 43.7828 29.9559C43.5761 31.0279 41.4214 34.8532 40.1988 36.8532C39.7988 36.0719 39.4588 35.3839 39.3881 34.8399C39.2801 34.0106 39.1548 33.5146 39.2854 32.5266C39.4161 31.5386 39.9881 30.1386 39.9801 30.0332C39.9721 29.9279 39.8521 29.4252 38.6694 29.4159C37.4868 29.4079 36.4748 29.6439 36.3561 29.9559C36.2374 30.2679 36.1094 30.9972 35.8681 31.7039C35.6254 32.4092 32.7628 38.7892 32.0121 40.4439C31.6294 41.2866 31.2974 41.9639 31.0628 42.4252L31.0614 42.4226C31.0614 42.4226 31.0468 42.4532 31.0228 42.5052C30.8214 42.8986 30.7028 43.1159 30.7028 43.1159C30.7028 43.1159 30.7041 43.1186 30.7068 43.1239C30.5468 43.4132 30.3761 43.6812 30.2921 43.6812C30.2334 43.6812 30.1148 42.9119 30.3174 41.8559C30.7441 39.6426 31.7668 36.1919 31.7574 36.0719C31.7521 36.0106 31.9481 35.4092 31.0894 35.0946C30.2548 34.7892 29.9574 35.2986 29.8814 35.2999C29.8081 35.3012 29.7534 35.4799 29.7534 35.4799C29.7534 35.4799 30.6828 31.5986 27.9801 31.5986C26.2894 31.5986 23.9481 33.4479 22.7948 35.1239C22.0668 35.5212 20.5081 36.3719 18.8561 37.2799C18.2214 37.6292 17.5734 37.9852 16.9588 38.3239C16.9174 38.2772 16.8748 38.2319 16.8321 38.1852C13.5534 34.6879 7.49476 32.2146 7.75076 27.5119C7.84409 25.8026 8.43876 21.3012 19.3948 15.8426C28.3694 11.3706 35.5548 12.6012 36.7961 15.3279C38.5694 19.2252 32.9561 26.4666 23.6361 27.5119C20.0854 27.9106 18.2148 26.5332 17.7494 26.0212C17.2601 25.4812 17.1868 25.4572 17.0041 25.5586C16.7068 25.7239 16.8948 26.1999 17.0041 26.4839C17.2828 27.2079 18.4241 28.4919 20.3708 29.1319C22.0841 29.6946 26.2534 30.0026 31.2948 28.0519C36.9428 25.8679 41.3521 19.7906 40.0561 14.7119C38.7388 9.54658 30.1734 7.84791 22.0668 10.7279C17.2361 12.4426 12.0134 15.1332 8.25743 18.6452C3.79209 22.8212 3.08009 26.4572 3.37343 27.9759C4.41609 33.3732 11.8548 36.8879 14.8334 39.4919C14.6868 39.5732 14.5481 39.6492 14.4228 39.7186C12.9294 40.4572 7.25876 43.4252 5.84009 46.5599C4.23076 50.1159 6.09609 52.6679 7.33076 53.0119C11.1561 54.0759 15.0814 52.1612 17.1921 49.0146C19.3014 45.8692 19.0441 41.7719 18.0761 39.9026C18.0641 39.8799 18.0508 39.8572 18.0388 39.8332C18.4241 39.6052 18.8174 39.3732 19.2068 39.1439C19.9668 38.6972 20.7134 38.2812 21.3601 37.9292C20.9974 38.9212 20.7321 40.1119 20.5948 41.8306C20.4321 43.8492 21.2601 46.4586 22.3428 47.4852C22.8201 47.9372 23.3934 47.9479 23.7561 47.9479C25.0161 47.9479 25.5908 46.8999 26.2241 45.6599C27.0001 44.1399 27.6894 42.3692 27.6894 42.3692C27.6894 42.3692 26.8254 47.1506 29.1801 47.1506C30.0388 47.1506 30.9014 46.0372 31.2868 45.4706C31.2881 45.4772 31.2881 45.4799 31.2881 45.4799C31.2881 45.4799 31.3108 45.4426 31.3548 45.3692C31.4441 45.2332 31.4948 45.1466 31.4948 45.1466C31.4948 45.1466 31.4961 45.1372 31.4988 45.1212C31.8441 44.5226 32.6094 43.1572 33.7561 40.9052C35.2388 37.9959 36.6601 34.3506 36.6601 34.3506C36.6601 34.3506 36.7921 35.2412 37.2254 36.7159C37.4801 37.5826 38.0214 38.5412 38.4494 39.4612C38.1054 39.9386 37.8948 40.2119 37.8948 40.2119C37.8948 40.2119 37.8961 40.2172 37.9001 40.2266C37.6254 40.5919 37.3174 40.9852 36.9948 41.3692C35.8241 42.7626 34.4308 44.3546 34.2441 44.8132C34.0241 45.3546 34.0761 45.7519 34.5014 46.0732C34.8121 46.3066 35.3641 46.3439 35.9414 46.3052C36.9934 46.2346 37.7321 45.9732 38.0974 45.8146C38.6668 45.6132 39.3294 45.2972 39.9508 44.8399C41.0988 43.9959 41.7908 42.7892 41.7241 41.1892C41.6868 40.3079 41.4068 39.4346 41.0508 38.6106C41.1548 38.4612 41.2588 38.3092 41.3641 38.1572C43.1734 35.5119 44.5774 32.6052 44.5774 32.6052C44.5774 32.6052 44.7094 33.4959 45.1428 34.9706C45.3614 35.7159 45.7948 36.5306 46.1841 37.3279C44.4828 38.7106 43.4281 40.3172 43.0614 41.3706C42.3841 43.3199 42.9148 44.2026 43.9094 44.4039C44.3601 44.4946 44.9974 44.2879 45.4761 44.0852C46.0721 43.8879 46.7881 43.5586 47.4574 43.0666C48.6054 42.2226 49.7094 41.0412 49.6428 39.4426C49.6121 38.7146 49.4148 37.9919 49.1468 37.2986C50.5894 36.6972 52.4561 36.3639 54.8348 36.6412C59.9374 37.2372 60.9374 40.4226 60.7468 41.7559C60.5548 43.0892 59.4854 43.8226 59.1268 44.0439C58.7694 44.2652 58.6601 44.3426 58.6894 44.5066C58.7334 44.7452 58.8988 44.7372 59.2041 44.6852C59.6241 44.6146 61.8828 43.6012 61.9801 41.1399C62.1014 38.0119 59.1081 34.5799 53.8054 34.6079ZM14.4761 47.8666C12.7854 49.7106 10.4254 50.4066 9.41209 49.8199C8.31876 49.1866 8.75209 46.4719 10.8254 44.5146C12.0894 43.3226 13.7214 42.2239 14.8041 41.5479C15.0508 41.3999 15.4121 41.1826 15.8521 40.9186C15.9254 40.8772 15.9668 40.8546 15.9668 40.8546L15.9654 40.8519C16.0508 40.8012 16.1374 40.7492 16.2268 40.6946C16.9828 43.4799 16.2508 45.9319 14.4761 47.8666ZM26.7894 39.4972C26.2014 40.9319 24.9694 44.6039 24.2188 44.4066C23.5748 44.2372 23.1828 41.4466 24.0908 38.6999C24.5468 37.3172 25.5228 35.6652 26.0961 35.0239C27.0188 33.9919 28.0348 33.6546 28.2814 34.0732C28.5948 34.6066 27.1588 38.5972 26.7894 39.4972ZM36.9614 44.3506C36.7121 44.4812 36.4828 44.5626 36.3774 44.4999C36.2988 44.4532 36.4801 44.2812 36.4801 44.2812C36.4801 44.2812 37.7521 42.9119 38.2534 42.2892C38.5454 41.9266 38.8828 41.4959 39.2508 41.0159C39.2534 41.0639 39.2548 41.1119 39.2548 41.1586C39.2521 42.7986 37.6681 43.9052 36.9614 44.3506ZM44.7974 42.5639C44.6108 42.4319 44.6428 42.0039 45.2548 40.6692C45.4948 40.1452 46.0441 39.2639 46.9961 38.4212C47.1068 38.7679 47.1734 39.0999 47.1721 39.4092C47.1601 41.4732 45.6881 42.2439 44.7974 42.5639Z" fill="#F06292"/>
</svg>
